<svg xmlns="http://www.w3.org/2000/svg" viewBox="0 0 512 512" width="32" height="32">
  <defs>
    <linearGradient id="bgGrad" x1="0%" y1="0%" x2="100%" y2="100%">
      <stop offset="0%" stop-color="#8B5CF6"/>
      <stop offset="50%" stop-color="#6366F1"/>
      <stop offset="100%" stop-color="#4F46E5"/>
    </linearGradient>
    <linearGradient id="ringGrad" x1="0%" y1="0%" x2="100%" y2="100%">
      <stop offset="0%" stop-color="#F3E8FF"/>
      <stop offset="100%" stop-color="#818CF8"/>
    </linearGradient>
    <linearGradient id="symbolGrad" x1="0%" y1="0%" x2="100%" y2="100%">
      <stop offset="0%" stop-color="#FFFFFF"/>
      <stop offset="100%" stop-color="#E0E7FF"/>
    </linearGradient>
  </defs>
  <circle cx="256" cy="256" r="230" fill="url(#bgGrad)" stroke="url(#ringGrad)" stroke-width="12"/>
  <g transform="translate(256, 256)">
    <rect x="-65" y="-100" width="36" height="200" rx="18" fill="url(#symbolGrad)"/>
    <path d="M -15 -10 L 55 -90 C 62 -98 75 -98 82 -90 L 85 -87 C 92 -79 92 -66 85 -59 L 15 15 Z" fill="url(#symbolGrad)"/>
    <path d="M 0 -5 L 82 82 C 90 90 90 102 82 110 L 78 114 C 70 122 58 122 50 114 L -25 35 Z" fill="url(#symbolGrad)"/>
    <circle cx="75" cy="-15" r="14" fill="#EF4444"/>
    <circle cx="-15" cy="75" r="12" fill="#3B82F6"/>
  </g>
</svg>

